<svg width="32" height="32" viewBox="0 0 32 32" fill="none" xmlns="http://www.w3.org/2000/svg">
<g id="logos:apple-app-store" clip-path="url(#clip0_4354_5002)">
<path id="Vector" d="M7.008 0H24.992C28.8625 0 32 3.1375 32 7.008V24.992C32 28.8625 28.8625 32 24.992 32H7.008C3.1375 32 0 28.8625 0 24.992V7.008C0 3.1375 3.1375 0 7.008 0Z" fill="url(#paint0_linear_4354_5002)"/>
<path id="Vector_2" d="M10.2525 23.2256L10.2555 23.2266L9.16137 25.1216C8.762 25.8133 7.8775 26.0503 7.18575 25.651C6.49412 25.2516 6.257 24.3671 6.65637 23.6753L7.46237 22.2793L7.53975 22.1453C7.67787 21.9468 8.01875 21.6041 8.70062 21.6686C8.70062 21.6686 10.3052 21.8427 10.4214 22.6767C10.4214 22.6767 10.4371 22.9511 10.2525 23.2256ZM25.7704 18.3856H22.3586C22.1262 18.37 22.0249 18.287 21.9849 18.2387L21.9824 18.2343L18.3302 11.9086L18.3255 11.9117L18.1065 11.5977C17.7475 11.0487 17.1775 12.4527 17.1775 12.4527C16.4969 14.0172 17.2741 15.7958 17.545 16.3335L22.6177 25.1197C23.017 25.8113 23.9015 26.0485 24.5934 25.649C25.285 25.2496 25.5221 24.3651 25.1226 23.6733L23.8542 21.4763C23.8296 21.4231 23.7869 21.2786 24.047 21.278H25.7704C26.5691 21.278 27.2166 20.6305 27.2166 19.8317C27.2166 19.033 26.5691 18.3855 25.7704 18.3855V18.3856ZM19.1436 20.3516C19.1436 20.3516 19.3257 21.278 18.6211 21.278H6.00875C5.21 21.278 4.5625 20.6305 4.5625 19.8317C4.5625 19.033 5.21 18.3855 6.00875 18.3855H9.25125C9.77475 18.3552 9.89875 18.053 9.89875 18.053L9.90175 18.0545L14.1342 10.7235L14.133 10.7232C14.2101 10.5816 14.1459 10.4477 14.1347 10.4266L12.7369 8.00548C12.3375 7.31385 12.5745 6.42922 13.2662 6.02997C13.958 5.6306 14.8425 5.86747 15.2419 6.55922L15.8901 7.6821L16.5372 6.56122C16.9366 5.8696 17.8211 5.63248 18.5129 6.03198C19.2046 6.43135 19.4416 7.31572 19.0422 8.00747L13.1525 18.2087C13.1267 18.2708 13.1189 18.3683 13.3105 18.3855H16.831L16.8317 18.4198C16.8317 18.4198 18.8665 18.4515 19.1436 20.3516Z" fill="white"/>
</g>
<defs>
<linearGradient id="paint0_linear_4354_5002" x1="16" y1="0" x2="16" y2="32" gradientUnits="userSpaceOnUse">
<stop stop-color="#17C9FB"/>
<stop offset="1" stop-color="#1A74E8"/>
</linearGradient>
<clipPath id="clip0_4354_5002">
<rect width="32" height="32" fill="white"/>
</clipPath>
</defs>
</svg>
