<svg width="32" height="35" viewBox="0 0 32 35" fill="none" xmlns="http://www.w3.org/2000/svg">
<g id="logos:google-play-icon" clip-path="url(#clip0_4354_4994)">
<path id="Vector" d="M23.6037 22.3589C27.6612 20.131 30.7371 18.4334 31.0022 18.3014C31.8503 17.8504 32.7262 16.6566 31.0022 15.7294C30.4456 15.4377 27.4487 13.793 23.6037 11.6719L18.2734 17.055L23.6037 22.3587V22.3589Z" fill="#FFD900"/>
<path id="Vector_2" d="M18.269 17.0547L1.29688 34.1601C1.69525 34.2128 2.145 34.1072 2.67525 33.8157C3.7885 33.2063 15.59 26.7614 23.5993 22.3598L18.269 17.0547Z" fill="#F43249"/>
<path id="Vector_3" d="M18.2719 17.0555L23.6022 11.6989C23.6022 11.6989 3.87194 0.931234 2.67819 0.295609C2.22844 0.0292336 1.72444 -0.0498914 1.27344 0.0292336L18.2719 17.0555Z" fill="#00EE76"/>
<path id="Vector_4" d="M18.2714 17.0555L1.27287 0.0292969C0.583 0.188797 0 0.798297 0 2.0448V32.1454C0 33.2863 0.451125 34.108 1.29925 34.1873L18.2714 17.0555Z" fill="#00D3FF"/>
</g>
<defs>
<clipPath id="clip0_4354_4994">
<rect width="32" height="34.25" fill="white"/>
</clipPath>
</defs>
</svg>
