<svg width="20" height="21" viewBox="0 0 20 21" fill="none" xmlns="http://www.w3.org/2000/svg">
<g id="logos:telegram" clip-path="url(#clip0_4354_5024)">
<path id="Vector" d="M10 0.5C7.34844 0.5 4.80312 1.55422 2.92969 3.42891C1.05432 5.30434 0.000519484 7.84778 0 10.5C0 13.1511 1.05469 15.6964 2.92969 17.5711C4.80312 19.4458 7.34844 20.5 10 20.5C12.6516 20.5 15.1969 19.4458 17.0703 17.5711C18.9453 15.6964 20 13.1511 20 10.5C20 7.84891 18.9453 5.30359 17.0703 3.42891C15.1969 1.55422 12.6516 0.5 10 0.5Z" fill="url(#paint0_linear_4354_5024)"/>
<path id="Vector_2" d="M4.52768 10.394C7.4433 9.12404 9.38705 8.2867 10.3589 7.88217C13.1371 6.72701 13.7136 6.52639 14.0902 6.51959C14.173 6.51826 14.3574 6.53873 14.4777 6.636C14.5777 6.71803 14.6058 6.82897 14.6199 6.90686C14.6324 6.98467 14.6495 7.16201 14.6355 7.30045C14.4855 8.8817 13.8339 12.7189 13.5027 14.49C13.3636 15.2394 13.0871 15.4906 12.8199 15.5151C12.2386 15.5686 11.798 15.1314 11.2355 14.7628C10.3558 14.1858 9.85892 13.8267 9.00424 13.2637C8.01674 12.6131 8.65736 12.2554 9.21986 11.6711C9.36674 11.5181 11.9261 9.19076 11.9745 8.97967C11.9808 8.95326 11.9871 8.85482 11.9277 8.80295C11.8699 8.75092 11.7839 8.76873 11.7214 8.78279C11.6324 8.80279 10.2277 9.73217 7.50268 11.5708C7.10424 11.8448 6.7433 11.9784 6.4183 11.9714C6.06205 11.9637 5.37455 11.7695 4.86361 11.6036C4.23861 11.4 3.74018 11.2923 3.78393 10.9465C3.8058 10.7665 4.05424 10.5823 4.52768 10.394Z" fill="white"/>
</g>
<defs>
<linearGradient id="paint0_linear_4354_5024" x1="10" y1="0.5" x2="10" y2="20.5" gradientUnits="userSpaceOnUse">
<stop stop-color="#2AABEE"/>
<stop offset="1" stop-color="#229ED9"/>
</linearGradient>
<clipPath id="clip0_4354_5024">
<rect width="20" height="20" fill="white" transform="translate(0 0.5)"/>
</clipPath>
</defs>
</svg>
