<svg width="19" height="17" viewBox="0 0 19 17" fill="none" xmlns="http://www.w3.org/2000/svg">
<g id="logos:twitter" clip-path="url(#clip0_4354_3545)">
<path id="Vector" d="M19 2.51175C18.2885 2.83348 17.5339 3.04466 16.7611 3.13827C17.566 2.64584 18.184 1.86607 18.4751 0.936981C17.7099 1.40045 16.8727 1.727 15.9998 1.90251C15.2887 1.12925 14.2757 0.645996 13.1545 0.645996C11.0017 0.645996 9.25627 2.42751 9.25627 4.62478C9.25627 4.93668 9.29078 5.24031 9.3572 5.5316C6.11755 5.36562 3.24529 3.7816 1.32265 1.37433C0.987184 1.96198 0.794957 2.64554 0.794957 3.37463C0.794957 4.75509 1.48319 5.97289 2.52908 6.68645C1.91006 6.66666 1.30465 6.496 0.763414 6.18872C0.763191 6.20539 0.763191 6.22206 0.763191 6.2388C0.763191 8.1666 2.10685 9.77479 3.89003 10.1403C3.31601 10.2997 2.7139 10.323 2.12971 10.2085C2.62571 11.7893 4.06533 12.9396 5.77103 12.9718C4.43695 14.0389 2.75611 14.675 0.929887 14.675C0.615199 14.675 0.304965 14.6561 0 14.6194C1.72507 15.7483 3.77402 16.4071 5.97535 16.4071C13.1454 16.4071 17.0662 10.3441 17.0662 5.08622C17.0662 4.91365 17.0624 4.74206 17.0549 4.57145C17.818 4.00833 18.4767 3.31086 19 2.51175Z" fill="#55ACEE"/>
</g>
<defs>
<clipPath id="clip0_4354_3545">
<rect width="19" height="15.8333" fill="white" transform="translate(0 0.583374)"/>
</clipPath>
</defs>
</svg>
