<svg width="19" height="13" viewBox="0 0 19 13" fill="none" xmlns="http://www.w3.org/2000/svg">
<g id="logos:youtube-icon" clip-path="url(#clip0_4354_3548)">
<path id="Vector" d="M18.5804 2.14227C18.4714 1.76041 18.2588 1.41228 17.9638 1.13255C17.6688 0.852816 17.3016 0.651239 16.8989 0.547893C15.4245 0.166626 9.49037 0.166626 9.49037 0.166626C9.49037 0.166626 3.55598 0.178167 2.08155 0.559433C1.67881 0.662786 1.31164 0.864373 1.01662 1.14412C0.721602 1.42387 0.509023 1.77201 0.400053 2.15389C-0.0459271 4.63782 -0.218931 8.42276 0.412299 10.8073C0.52128 11.1892 0.733864 11.5373 1.02888 11.8171C1.3239 12.0968 1.69106 12.2984 2.0938 12.4017C3.56823 12.783 9.50246 12.783 9.50246 12.783C9.50246 12.783 15.4366 12.783 16.911 12.4017C17.3137 12.2984 17.6809 12.0968 17.9759 11.8171C18.271 11.5373 18.4836 11.1892 18.5926 10.8073C19.063 8.31988 19.2079 4.53733 18.5804 2.14234V2.14227Z" fill="#FF0000"/>
<path id="Vector_2" d="M7.60156 9.17907L12.5243 6.47558L7.60156 3.77209V9.17907Z" fill="white"/>
</g>
<defs>
<clipPath id="clip0_4354_3548">
<rect width="19" height="12.6667" fill="white" transform="translate(0 0.166626)"/>
</clipPath>
</defs>
</svg>
