<svg width="24" height="24" viewBox="0 0 24 24" fill="none" xmlns="http://www.w3.org/2000/svg">
<path d="M17.5501 2.25H6.45508C5.62665 2.25 4.95508 2.92157 4.95508 3.75V19.04C4.95508 19.8684 5.62665 20.54 6.45508 20.54H17.5501C18.3785 20.54 19.0501 19.8684 19.0501 19.04V3.75C19.0501 2.92157 18.3785 2.25 17.5501 2.25Z" stroke="#545D6A" stroke-width="2" stroke-linecap="round" stroke-linejoin="round"/>
<path d="M4.95508 9.84502H19.0451M7.73508 7.92502V4.89502M7.73508 14.58V11.55M6.32008 20.54V21.065C6.32007 21.2458 6.39156 21.4193 6.51894 21.5476C6.64632 21.6759 6.81927 21.7487 7.00008 21.75H8.23508C8.41675 21.75 8.59098 21.6778 8.71945 21.5494C8.84791 21.4209 8.92008 21.2467 8.92008 21.065V20.54M15.0751 20.54V21.065C15.0751 21.2467 15.1472 21.4209 15.2757 21.5494C15.4042 21.6778 15.5784 21.75 15.7601 21.75H17.0001C17.1818 21.75 17.356 21.6778 17.4844 21.5494C17.6129 21.4209 17.6851 21.2467 17.6851 21.065V20.54" stroke="#545D6A" stroke-width="2" stroke-linecap="round" stroke-linejoin="round"/>
</svg>
