<svg width="24" height="24" viewBox="0 0 24 24" fill="none" xmlns="http://www.w3.org/2000/svg">
<path d="M5.15 12V11.85H5H2C1.77457 11.85 1.55837 11.7604 1.39896 11.601C1.23955 11.4416 1.15 11.2254 1.15 11V3C1.15 2.77457 1.23955 2.55837 1.39896 2.39896C1.55837 2.23955 1.77457 2.15 2 2.15H22C22.2254 2.15 22.4416 2.23955 22.601 2.39896C22.7604 2.55836 22.85 2.77457 22.85 3V11C22.85 11.2254 22.7604 11.4416 22.601 11.601C22.4416 11.7604 22.2254 11.85 22 11.85H19H18.85V12V21C18.85 21.2254 18.7604 21.4416 18.601 21.601C18.4416 21.7604 18.2254 21.85 18 21.85H6C5.77457 21.85 5.55836 21.7604 5.39896 21.601C5.23955 21.4416 5.15 21.2254 5.15 21V12ZM6.85 20V20.15H7H9H9.15V20C9.15 19.4298 8.92348 18.8829 8.52028 18.4797C8.11708 18.0765 7.57022 17.85 7 17.85H6.85V18V20ZM17 20.15H17.15V20V18V17.85H17C16.4298 17.85 15.8829 18.0765 15.4797 18.4797C15.0765 18.8829 14.85 19.4298 14.85 20V20.15H15H17ZM17 16.15H17.15V16V8V7.85H17H7H6.85V8V16V16.15H7C8.02108 16.15 9.00035 16.5556 9.72236 17.2776C10.4444 17.9997 10.85 18.9789 10.85 20V20.15H11H13H13.15V20C13.15 18.9789 13.5556 17.9997 14.2776 17.2776C14.9997 16.5556 15.9789 16.15 17 16.15ZM21 10.15H21.15V10V4V3.85H21H3H2.85V4V10V10.15H3H5H5.15V10V7C5.15 6.77457 5.23955 6.55837 5.39896 6.39896C5.55837 6.23955 5.77457 6.15 6 6.15H18C18.2254 6.15 18.4416 6.23955 18.601 6.39896C18.7604 6.55836 18.85 6.77457 18.85 7V10V10.15H19H21ZM13.5834 14.3697C13.1147 14.6828 12.5637 14.85 12 14.85C11.2441 14.85 10.5192 14.5497 9.98475 14.0153C9.45027 13.4808 9.15 12.7559 9.15 12C9.15 11.4363 9.31715 10.8853 9.63031 10.4166C9.94347 9.94794 10.3886 9.58265 10.9094 9.36694C11.4301 9.15123 12.0032 9.09479 12.556 9.20476C13.1089 9.31473 13.6167 9.58617 14.0153 9.98475C14.4138 10.3833 14.6853 10.8911 14.7952 11.444C14.9052 11.9968 14.8488 12.5699 14.6331 13.0906C14.4173 13.6114 14.0521 14.0565 13.5834 14.3697ZM12.6389 11.0438C12.4498 10.9174 12.2274 10.85 12 10.85C11.695 10.85 11.4025 10.9712 11.1868 11.1868C10.9712 11.4025 10.85 11.695 10.85 12C10.85 12.2274 10.9174 12.4498 11.0438 12.6389C11.1702 12.828 11.3498 12.9754 11.5599 13.0625C11.77 13.1495 12.0013 13.1723 12.2244 13.1279C12.4474 13.0835 12.6523 12.974 12.8132 12.8132C12.974 12.6523 13.0835 12.4474 13.1279 12.2244C13.1723 12.0013 13.1495 11.77 13.0625 11.5599C12.9754 11.3498 12.828 11.1702 12.6389 11.0438Z" fill="#545D6A" stroke="white" stroke-width="0.3"/>
</svg>
