<svg width="24" height="24" viewBox="0 0 24 24" fill="none" xmlns="http://www.w3.org/2000/svg">
<g clip-path="url(#clip0_59_181)">
<path d="M16.5 1.5C16.8978 1.5 17.2794 1.65804 17.5607 1.93934C17.842 2.22064 18 2.60218 18 3V21C18 21.3978 17.842 21.7794 17.5607 22.0607C17.2794 22.342 16.8978 22.5 16.5 22.5H7.5C7.10218 22.5 6.72064 22.342 6.43934 22.0607C6.15804 21.7794 6 21.3978 6 21V3C6 2.60218 6.15804 2.22064 6.43934 1.93934C6.72064 1.65804 7.10218 1.5 7.5 1.5H16.5ZM7.5 0C6.70435 0 5.94129 0.316071 5.37868 0.87868C4.81607 1.44129 4.5 2.20435 4.5 3V21C4.5 21.7957 4.81607 22.5587 5.37868 23.1213C5.94129 23.6839 6.70435 24 7.5 24H16.5C17.2956 24 18.0587 23.6839 18.6213 23.1213C19.1839 22.5587 19.5 21.7957 19.5 21V3C19.5 2.20435 19.1839 1.44129 18.6213 0.87868C18.0587 0.316071 17.2956 0 16.5 0L7.5 0Z" fill="black"/>
<path d="M12.1693 21.6667C12.3903 21.6667 12.6022 21.5789 12.7585 21.4226C12.9148 21.2663 13.0026 21.0543 13.0026 20.8333C13.0026 20.6123 12.9148 20.4004 12.7585 20.2441C12.6022 20.0878 12.3903 20 12.1693 20C11.9483 20 11.7363 20.0878 11.58 20.2441C11.4237 20.4004 11.3359 20.6123 11.3359 20.8333C11.3359 21.0543 11.4237 21.2663 11.58 21.4226C11.7363 21.5789 11.9483 21.6667 12.1693 21.6667Z" fill="black"/>
</g>
<defs>
<clipPath id="clip0_59_181">
<rect width="24" height="24" fill="white"/>
</clipPath>
</defs>
</svg>
