<svg width="24" height="24" viewBox="0 0 24 24" fill="none" xmlns="http://www.w3.org/2000/svg">
<path d="M13.0005 12.6264V6.79775C13.0005 5.39888 14.0005 4 16.0005 4C18.0005 4 19.0005 5.39888 19.0005 6.79775V17.9888" stroke="#545D6A" stroke-width="2"/>
<path d="M5 20.7866H12.943C12.9745 20.7866 13 20.7633 13 20.7335V12.9786C13 9.56529 10.033 6.79785 6.3725 6.79785C5.61067 6.79785 4.88003 7.08009 4.34134 7.58247C3.80264 8.08485 3.5 8.76622 3.5 9.4767V15.6574M16.375 17.9889H21.625L22 20.7866H16L16.375 17.9889Z" stroke="#545D6A" stroke-width="2" stroke-linecap="round" stroke-linejoin="round"/>
<path d="M5 20.7864C6.65685 20.7864 8 19.5338 8 17.9887C8 16.4435 6.65685 15.1909 5 15.1909C3.34315 15.1909 2 16.4435 2 17.9887C2 19.5338 3.34315 20.7864 5 20.7864Z" stroke="#545D6A" stroke-width="2"/>
<path d="M7.00049 6.79785V15.6574" stroke="#545D6A" stroke-width="2" stroke-linecap="round" stroke-linejoin="round"/>
</svg>
